<svg xmlns="http://www.w3.org/2000/svg" viewBox="0 0 20.289 20.289">
  <defs>
    <style>
      .cls-1 {
        fill: #fff;
      }

      .cls-2 {
        opacity: 0.7;
      }
    </style>
  </defs>
  <g id="Group_3938" data-name="Group 3938" transform="translate(-139 -524)">
    <circle id="Ellipse_82" data-name="Ellipse 82" class="cls-1" cx="10.145" cy="10.145" r="10.145" transform="translate(139 524)"/>
    <path id="_128531" data-name="128531" class="cls-2" d="M10.145,0A10.145,10.145,0,1,0,20.289,10.145,10.115,10.115,0,0,0,10.145,0ZM11.62,10.329l3.458,3.458a.446.446,0,0,1,0,.646l-.646.646a.5.5,0,0,1-.323.138.419.419,0,0,1-.323-.138L10.329,11.62a.223.223,0,0,0-.323,0L6.548,15.078a.5.5,0,0,1-.323.138.419.419,0,0,1-.323-.138l-.646-.646a.446.446,0,0,1,0-.646l3.458-3.458a.223.223,0,0,0,0-.323L5.257,6.548a.446.446,0,0,1,0-.646L5.9,5.257a.446.446,0,0,1,.646,0l3.458,3.458a.223.223,0,0,0,.323,0l3.458-3.458a.5.5,0,0,1,.323-.138.419.419,0,0,1,.323.138l.646.646a.446.446,0,0,1,0,.646L11.62,10.006C11.528,10.052,11.528,10.237,11.62,10.329Z" transform="translate(139 524)"/>
  </g>
</svg>
