<svg xmlns="http://www.w3.org/2000/svg" viewBox="0 0 13.276 14.657">
  <defs>
    <style>
      .cls-1 {
        opacity: 0.6;
      }
    </style>
  </defs>
  <g id="Group_3941" data-name="Group 3941" transform="translate(-36 -484.807)">
    <g id="_118760" data-name="118760" class="cls-1" transform="translate(24.1 478.457)">
      <path id="Path_2885" data-name="Path 2885" d="M18.015,12.887a.517.517,0,0,0-.731-.731l-2.736,2.736A2.443,2.443,0,0,0,18,18.347l6.178-6.178a3.41,3.41,0,0,0-4.829-4.816l-6.165,6.165a4.386,4.386,0,1,0,6.2,6.2l2.736-2.736a.517.517,0,0,0-.731-.731L18.658,18.99a3.352,3.352,0,1,1-4.741-4.741l6.165-6.165a2.346,2.346,0,0,1,1.677-.693,2.376,2.376,0,0,1,1.677.693A2.346,2.346,0,0,1,24.13,9.76a2.376,2.376,0,0,1-.693,1.677l-6.178,6.178a1.423,1.423,0,0,1-1.992,0,1.4,1.4,0,0,1,0-1.992l2.749-2.736Z" transform="translate(0)"/>
    </g>
  </g>
</svg>
